HIERARCHY
ROOT pelvis
{
	OFFSET 0.00 0.00 0.00
	CHANNELS 6 Xposition Yposition Zposition Xrotation Yrotation Zrotation
	JOINT lfemur
	{
		OFFSET 0.00000 3.20717 0.00000
		CHANNELS 3 Xrotation Yrotation Zrotation
		JOINT ltibia
		{
			OFFSET 0.00000 0.00000 -15.48450
			CHANNELS 3 Xrotation Yrotation Zrotation
			JOINT lfoot
			{
				OFFSET 0.00000 0.00000 -15.12678
				CHANNELS 3 Xrotation Yrotation Zrotation
				JOINT ltoes
				{
					OFFSET 5.14667 0.00000 -1.70681
					CHANNELS 3 Xrotation Yrotation Zrotation
				}
			}
		}
	}
	JOINT rfemur
	{
		OFFSET 0.00000 -3.20717 0.00000
		CHANNELS 3 Xrotation Yrotation Zrotation
		JOINT rtibia
		{
			OFFSET 0.00000 0.00000 -15.79237
			CHANNELS 3 Xrotation Yrotation Zrotation
			JOINT rfoot
			{
				OFFSET 0.00000 0.00000 -14.63938
				CHANNELS 3 Xrotation Yrotation Zrotation
				JOINT rtoes
				{
					OFFSET 4.13531 0.00000 -2.28367
					CHANNELS 3 Xrotation Yrotation Zrotation
				}
			}
		}
	}
	JOINT lowerback
	{
		OFFSET -1.96850 0.00000 5.25621
		CHANNELS 3 Xrotation Yrotation Zrotation
		JOINT upperback
		{
			OFFSET -0.07958 0.00000 5.71078
			CHANNELS 3 Xrotation Yrotation Zrotation
			JOINT lclavicle
			{
				OFFSET 0.00000 0.00000 8.25148
				CHANNELS 3 Xrotation Yrotation Zrotation
				JOINT lhumerus
				{
					OFFSET 0.00000 5.37672 -2.47600
					CHANNELS 3 Xrotation Yrotation Zrotation
					JOINT lradius
					{
						OFFSET 0.00000 0.00000 -11.21411
						CHANNELS 3 Xrotation Yrotation Zrotation
						JOINT lhand
						{
							OFFSET 0.00000 0.00000 -8.03975
							CHANNELS 3 Xrotation Yrotation Zrotation
						}
					}
				}
			}
			JOINT rclavicle
			{
				OFFSET 0.00000 0.00000 8.25148
				CHANNELS 3 Xrotation Yrotation Zrotation
				JOINT rhumerus
				{
					OFFSET 0.00000 -5.17578 -2.36445
					CHANNELS 3 Xrotation Yrotation Zrotation
					JOINT rradius
					{
						OFFSET 0.00000 0.00000 -11.62006
						CHANNELS 3 Xrotation Yrotation Zrotation
						JOINT rhand
						{
							OFFSET 0.00000 0.00000 -7.95557
							CHANNELS 3 Xrotation Yrotation Zrotation
						}
					}
				}
			}
			JOINT LowerNeck
			{
				OFFSET 0.00000 0.00000 8.25148
				CHANNELS 3 Xrotation Yrotation Zrotation
				JOINT Neck
				{
					OFFSET -0.20651 -0.19585 3.46745
					CHANNELS 3 Xrotation Yrotation Zrotation
				}
			}
		}
	}
}
MOTION
Frames: 13
Frame Time: 0.008342
 11.8516 -24.5534 30.8133 -0.6537 -4.8432 71.5143 10.1566 -25.1421 17.5243 0.0000 21.4833 -2.6141 3.3024 -5.0237 12.6767 0.0000 -18.9981 0.0000 13.0445 11.0349 2.1068 0.0000 -2.3689 -17.6559 -2.7474 -20.8849 -10.6113 -0.0000 -6.9819 -0.0000 1.1802 -12.4814 -3.3204 5.8133 35.9031 -1.4088 2.2211 -0.0000 -6.1653 7.4603 -23.5550 30.0842 0.0000 -9.0977 -56.1441 -13.1376 -11.6347 -0.0000 -3.2500 0.0000 6.7368 -15.5703 -21.4121 -6.7322 -0.0000 -19.6435 17.5845 30.2099 -13.4277 0.0000 -2.4553 -18.9021 -16.1609 14.3314 -21.7878 30.9435
 11.8575 -24.4840 30.8103 -0.7222 -4.8424 71.4144 10.2240 -25.2079 17.5235 0.0000 21.8007 -2.3575 3.2724 -5.4316 12.5747 0.0000 -19.0502 -0.0000 13.0150 11.1020 2.2228 0.0000 -2.3651 -17.6137 -2.7754 -20.9028 -10.7201 0.0000 -7.0254 -0.0000 1.1908 -12.5413 -3.2802 5.8103 35.8753 -1.3540 2.1706 -0.0000 -6.1442 7.4554 -23.5860 30.3168 0.0000 -8.7790 -55.7259 -12.9657 -11.7287 -0.0000 -3.2310 0.0000 6.6692 -15.5796 -21.3998 -6.6706 -0.0000 -19.5782 17.8110 30.1008 -13.4412 0.0000 -2.5777 -18.8860 -16.1622 14.2879 -21.9157 30.5990
 11.8592 -24.4139 30.8086 -0.7787 -4.8386 71.3116 10.2974 -25.2749 17.6227 0.0000 22.1604 -2.2380 3.2563 -5.8351 12.5260 -0.0000 -19.0360 -0.0000 12.9755 11.1558 2.3428 0.0000 -2.3085 -17.5654 -2.8025 -20.9453 -10.8250 -0.0000 -7.0586 -0.0000 1.1987 -12.5876 -3.2659 5.8070 35.8790 -1.3246 2.1191 -0.0000 -6.1424 7.4209 -23.5610 30.6628 0.0000 -8.7028 -55.3903 -12.9416 -11.6877 -0.0000 -3.2373 -0.0000 6.6479 -15.6027 -21.4263 -6.6460 -0.0000 -19.4929 17.8825 30.2567 -13.3674 0.0000 -2.6813 -18.8675 -16.2150 14.2976 -22.0409 30.3447
 11.8616 -24.3382 30.8053 -0.8334 -4.8313 71.2241 10.3680 -25.3412 17.7605 0.0000 22.5265 -2.1922 3.2498 -6.2358 12.5140 0.0000 -19.0347 0.0000 12.9316 11.2122 2.4317 0.0000 -2.2410 -17.5765 -2.8077 -20.9995 -10.8440 0.0000 -7.0587 0.0000 1.1921 -12.6400 -3.2547 5.7945 35.8791 -1.3022 2.1079 0.0000 -6.1405 7.3750 -23.5291 30.8809 0.0000 -8.5984 -54.9497 -12.9283 -11.6448 -0.0000 -3.2403 0.0000 6.6232 -15.5911 -21.4209 -6.5696 -0.0000 -19.4444 17.9413 30.0927 -13.4319 0.0000 -2.8013 -18.9292 -16.2355 14.2657 -22.1367 29.9734
 11.8631 -24.2631 30.8021 -0.8838 -4.8201 71.1399 10.4237 -25.4053 17.8634 0.0000 22.8903 -2.1338 3.2464 -6.6397 12.5136 0.0000 -19.0198 -0.0000 12.8840 11.2654 2.4912 0.0000 -2.1655 -17.5667 -2.8136 -21.0634 -10.8655 -0.0000 -7.0702 -0.0000 1.1826 -12.6921 -3.2455 5.7801 35.8835 -1.2846 2.0958 -0.0000 -6.1328 7.3190 -23.4843 31.0676 0.0000 -8.5553 -54.4684 -12.9243 -11.5549 -0.0000 -3.2411 0.0000 6.6132 -15.5947 -21.4205 -6.5389 -0.0000 -19.3757 18.0259 30.1168 -13.4716 0.0000 -2.8875 -18.9448 -16.2714 14.2319 -22.2713 29.6557
 11.8645 -24.1853 30.7984 -0.9328 -4.8053 71.0643 10.4734 -25.4683 17.9754 0.0000 23.2585 -2.0932 3.2449 -7.0496 12.5201 0.0000 -19.0294 0.0000 12.8319 11.3230 2.5148 0.0000 -2.0900 -17.5543 -2.8103 -21.1252 -10.8514 -0.0000 -7.0727 -0.0000 1.1702 -12.7518 -3.2391 5.7650 35.8894 -1.2791 2.0939 0.0000 -6.1256 7.2654 -23.4319 31.2153 0.0000 -8.5257 -53.9792 -12.9878 -11.4645 -0.0000 -3.2400 0.0000 6.6031 -15.5910 -21.4172 -6.5183 -0.0000 -19.3168 18.0989 30.0498 -13.5354 0.0000 -2.9681 -18.9560 -16.2967 14.1953 -22.4192 29.2906
 11.8651 -24.1052 30.7943 -0.9802 -4.7879 71.0001 10.5048 -25.5293 18.0539 -0.0000 23.6209 -2.0621 3.2475 -7.4603 12.5423 0.0000 -19.0277 -0.0000 12.7767 11.3852 2.5345 0.0000 -2.0187 -17.5580 -2.8066 -21.1954 -10.8355 0.0000 -7.0846 0.0000 1.1540 -12.8139 -3.2362 5.7470 35.8981 -1.2797 2.0938 0.0000 -6.1148 7.2139 -23.3757 31.3340 0.0000 -8.5138 -53.4685 -13.0387 -11.3336 0.0000 -3.2352 -0.0000 6.5944 -15.5831 -21.4064 -6.5129 -0.0000 -19.2532 18.1929 30.0218 -13.5948 0.0000 -3.0455 -18.9693 -16.3254 14.1366 -22.5732 28.8988
 11.8649 -24.0227 30.7900 -1.0254 -4.7676 70.9459 10.5216 -25.5875 18.1073 0.0000 23.9783 -2.0293 3.2543 -7.8671 12.5800 0.0000 -19.0147 0.0000 12.7182 11.4533 2.5534 0.0000 -1.9554 -17.5687 -2.8004 -21.2700 -10.8098 0.0000 -7.0875 -0.0000 1.1350 -12.8792 -3.2358 5.7265 35.9077 -1.2864 2.0938 -0.0000 -6.1013 7.1682 -23.3205 31.4263 0.0000 -8.5167 -52.9600 -13.0708 -11.1866 -0.0000 -3.2282 0.0000 6.5870 -15.5707 -21.3899 -6.5235 -0.0000 -19.1916 18.2804 29.9998 -13.6422 0.0000 -3.1229 -18.9856 -16.3563 14.0625 -22.7425 28.4855
 11.8641 -23.9378 30.7852 -1.0680 -4.7436 70.9016 10.5243 -25.6459 18.1498 0.0000 24.3415 -2.0098 3.2598 -8.2675 12.6117 0.0000 -19.0240 -0.0000 12.6529 11.5318 2.5516 0.0000 -1.8985 -17.5921 -2.7935 -21.3400 -10.7814 0.0000 -7.0919 -0.0000 1.1148 -12.9509 -3.2402 5.7029 35.9223 -1.2994 2.0968 0.0000 -6.0893 7.1338 -23.2634 31.5037 0.0000 -8.5220 -52.4656 -13.1510 -11.0294 -0.0000 -3.2234 -0.0000 6.5830 -15.5509 -21.3682 -6.5371 -0.0000 -19.1445 18.3174 29.9568 -13.6621 0.0000 -3.1995 -18.9980 -16.3875 13.9843 -22.9137 28.0394
 11.8626 -23.8506 30.7801 -1.1076 -4.7165 70.8655 10.5136 -25.6996 18.1749 0.0000 24.6967 -1.9955 3.2695 -8.6543 12.6593 0.0000 -19.0182 0.0000 12.5838 11.6167 2.5575 0.0000 -1.8499 -17.6212 -2.7879 -21.4151 -10.7578 0.0000 -7.0999 0.0000 1.0920 -13.0234 -3.2451 5.6747 35.9375 -1.3144 2.0990 -0.0000 -6.0749 7.1062 -23.2121 31.5687 0.0000 -8.5312 -51.9855 -13.1980 -10.8665 0.0000 -3.2176 0.0000 6.5799 -15.5258 -21.3389 -6.5572 0.0000 -19.1030 18.3570 29.9292 -13.6680 -0.0000 -3.2712 -19.0128 -16.4218 13.8925 -23.0982 27.5860
 11.8604 -23.7613 30.7745 -1.1439 -4.6866 70.8328 10.4949 -25.7477 18.2008 0.0000 25.0474 -1.9928 3.2808 -9.0270 12.7123 0.0000 -19.0104 0.0000 12.5094 11.7098 2.5635 0.0000 -1.8078 -17.6602 -2.7806 -21.4924 -10.7278 0.0000 -7.1071 0.0000 1.0684 -13.0975 -3.2477 5.6429 35.9553 -1.3310 2.0999 -0.0000 -6.0595 7.0900 -23.1685 31.6287 0.0000 -8.5384 -51.5106 -13.2355 -10.7158 -0.0000 -3.2124 0.0000 6.5779 -15.4954 -21.3033 -6.5786 -0.0000 -19.0718 18.3755 29.8928 -13.6518 0.0000 -3.3383 -19.0272 -16.4574 13.7979 -23.2926 27.1260
 11.8578 -23.6696 30.7686 -1.1765 -4.6544 70.8017 10.4714 -25.7884 18.2377 0.0000 25.3935 -2.0110 3.2944 -9.3865 12.7739 -0.0000 -19.0005 -0.0000 12.4298 11.8124 2.5697 0.0000 -1.7729 -17.7081 -2.7724 -21.5696 -10.6940 0.0000 -7.1153 -0.0000 1.0445 -13.1735 -3.2466 5.6080 35.9763 -1.3483 2.0985 -0.0000 -6.0433 7.0856 -23.1330 31.6860 0.0000 -8.5386 -51.0601 -13.2569 -10.5844 -0.0000 -3.2086 0.0000 6.5769 -15.4617 -21.2615 -6.6016 -0.0000 -19.0436 18.3915 29.8621 -13.6490 0.0000 -3.3993 -19.0366 -16.4941 13.7011 -23.4993 26.6642
 11.8548 -23.5755 30.7622 -1.2053 -4.6205 70.7705 10.4458 -25.8198 18.2906 0.0000 25.7335 -2.0539 3.3106 -9.7359 12.8446 -0.0000 -18.9884 -0.0000 12.3453 11.9254 2.5785 0.0000 -1.7457 -17.7678 -2.7620 -21.6471 -10.6517 0.0000 -7.1225 0.0000 1.0211 -13.2518 -3.2411 5.5710 36.0010 -1.3658 2.0941 -0.0000 -6.0261 7.0931 -23.1060 31.7471 0.0000 -8.5337 -50.6357 -13.2748 -10.4694 0.0000 -3.2067 -0.0000 6.5764 -15.4248 -21.2144 -6.6225 -0.0000 -19.0166 18.4036 29.8394 -13.6414 0.0000 -3.4571 -19.0452 -16.5314 13.6024 -23.7142 26.1995
